<svg width="18" height="18" viewBox="0 0 18 18" fill="none" xmlns="http://www.w3.org/2000/svg">
<path d="M15.9231 6.98123V15.9231H2.07692V2.07692H11.0188C10.8402 1.77023 10.7308 1.41854 10.7308 1.03846C10.7308 0.658038 10.8402 0.306692 11.0188 0H1.03846C0.464885 0 0 0.464885 0 1.03846V16.9615C0 17.5351 0.464885 18 1.03846 18H16.9615C17.5351 18 18 17.5351 18 16.9615V6.98123C17.693 7.1595 17.3423 7.26923 16.9615 7.26923C16.5815 7.26923 16.2301 7.1595 15.9231 6.98123ZM16.9615 0H12.8077C12.2341 0 11.7692 0.464885 11.7692 1.03846C11.7692 1.61204 12.2341 2.07692 12.8077 2.07692H14.4543L9.29181 7.23946L9.29285 7.2405C9.1125 7.42742 9 7.68115 9 7.96154C9 8.53512 9.46488 9 10.0385 9C10.3192 9 10.5726 8.8875 10.7592 8.70681L10.7602 8.70785L15.9231 3.54565V5.19231C15.9231 5.76588 16.388 6.23077 16.9612 6.23077H16.9615C17.5351 6.23077 18 5.76588 18 5.19231V1.03846C18 0.464885 17.5351 0 16.9615 0Z" fill="#BFBFBF"/>
</svg>
